<svg width="939" height="1153" viewBox="0 0 939 1153" fill="none"
    xmlns="http://www.w3.org/2000/svg">
    <path d="M1.20084 593.461C1.20084 511.045 1 428.63 1.33475 346.214C1.4017 323.183 8.43146 301.96 23.5622 284.218C40.0988 264.87 61.1211 254.693 87.0977 254.158C117.627 253.555 142.733 265.071 163.287 286.696C174.936 298.947 185.112 312.538 195.824 325.66C210.353 343.335 224.68 361.144 239.208 378.819C254.674 397.632 269.47 417.047 287.479 433.651C301.338 446.371 316.134 457.753 334.277 463.845C352.421 469.938 370.162 469.134 387.368 460.498C406.248 450.924 421.446 437.668 429.145 417.315C435.372 400.845 435.572 384.108 431.288 367.036C427.405 351.436 420.977 337.243 410.868 324.924C397.21 308.32 383.017 292.119 369.091 275.649C356.304 260.585 343.784 245.32 330.796 230.458C319.749 217.804 308.501 205.351 298.526 191.827C286.341 175.358 276.499 157.683 269.135 138.535C262.708 121.798 260.699 104.525 262.105 86.8498C263.176 73.4598 268.197 61.141 275.83 50.0943C292.634 25.9923 316.067 10.6607 344.253 4.23354C381.879 -4.33606 415.688 3.76489 442.736 32.8881C453.247 44.2027 460.679 57.4588 466.169 71.9869C472.261 88.0549 475.14 104.525 476.077 121.463C476.211 123.806 475.876 126.216 475.876 128.56C475.876 184.329 475.675 240.165 476.01 295.935C476.077 307.919 477.684 319.903 483.442 330.883C493.149 349.227 508.347 360.341 528.365 364.96C543.898 368.508 559.765 366.433 575.431 366.835C584.804 367.036 594.244 366.232 603.55 367.169C613.726 368.174 623.97 370.45 631.267 378.685C639.904 388.46 640.506 400.176 638.096 412.294C634.213 431.508 620.221 443.225 605.759 454.338C590.294 466.189 574.092 477.034 559.363 489.755C542.826 504.015 530.173 521.489 521.67 541.641C515.176 557.04 512.23 573.375 514.306 589.979C516.046 603.972 521.068 617.094 529.905 628.341C542.291 644.075 557.89 655.255 577.239 660.745C598.194 666.704 618.48 663.624 638.029 655.055C664.608 643.472 684.827 624.257 702.435 601.628C719.24 579.87 734.236 556.839 750.974 535.013C759.276 524.167 767.109 512.987 776.348 502.944C790.073 488.081 805.873 476.499 826.025 471.611C836.469 469.067 846.98 467.26 857.692 467.728C879.384 468.599 899.402 474.356 914.734 490.893C925.379 502.342 931.203 516.267 934.886 531.532C938.702 547.265 938.099 563.065 938.099 578.932C938.166 652.443 938.166 725.955 938.099 799.399C938.099 821.224 933.948 842.247 924.441 861.863C912.056 887.438 892.305 904.242 863.985 909.665C838.879 914.419 815.447 909.13 793.487 896.342C772.264 884.023 753.719 868.357 736.312 851.151C720.244 835.284 703.64 819.952 687.371 804.286C677.195 794.511 667.353 784.402 657.244 774.56C643.519 761.237 629.594 747.981 615.802 734.658C607.701 726.825 599.734 718.791 591.7 710.891C581.724 701.183 571.615 691.542 561.572 681.835C550.593 671.189 539.613 660.477 528.7 649.765C518.925 640.125 508.347 631.622 495.426 626.333C478.688 619.437 462.754 625.262 454.251 641.263C448.695 651.774 446.351 663.088 446.351 674.738C446.218 802.679 446.619 930.621 445.95 1058.56C445.816 1087.15 436.51 1113.33 413.412 1132.54C402.968 1141.25 390.783 1146.4 377.46 1149.35C366.145 1151.82 354.764 1152.23 343.382 1151.89C306.292 1150.82 274.089 1129.86 259.561 1093.24C252.866 1076.37 250.389 1058.9 250.322 1041.02C250.188 990.742 250.456 940.462 250.188 890.183C250.121 876.19 250.79 862.198 253.335 848.54C258.222 821.76 268.666 797.189 286.743 776.301C293.906 768.066 302.208 761.103 310.242 753.94C318.209 746.843 325.841 739.345 333.675 732.114C350.412 716.515 367.685 701.451 383.619 684.981C399.553 668.444 414.148 650.904 424.793 630.35C433.698 613.077 437.179 594.733 434.635 575.518C433.028 563.333 427.405 552.353 420.576 542.177C411.47 528.72 400.558 517.137 386.029 509.304C372.706 502.074 358.513 498.927 343.248 498.86C325.239 498.726 308.769 503.212 293.638 512.384C270.942 526.042 256.548 546.261 249.652 571.769C244.698 589.979 243.158 608.859 240.413 627.471C238.806 638.317 237.133 649.163 235.459 660.009C233.383 673.934 231.308 687.86 229.166 701.786C226.488 719.393 223.743 736.934 221.132 754.542C218.654 771.28 216.579 788.017 213.834 804.688C211.357 819.618 210.018 834.748 205.532 849.276C199.775 867.889 191.205 884.961 178.217 899.824C163.689 916.36 145.88 927.273 124.724 932.294C111.401 935.441 97.8767 936.044 84.1519 933.7C72.7704 931.759 61.7906 928.947 51.6142 923.591C28.9182 911.741 13.7205 893.597 6.02125 869.094C2.27205 857.177 1 845.126 1 832.673C1.2678 752.935 1.20084 673.198 1.20084 593.461Z" stroke="url(#paint0_linear_520_320)" stroke-miterlimit="10"/>
    <defs>
        <linearGradient id="paint0_linear_520_320" x1="0.482477" y1="576.596" x2="938.852" y2="576.596" gradientUnits="userSpaceOnUse">
            <stop offset="0.00126075" stop-color="#F1F1F1"/>
            <stop offset="1" stop-color="#A7B3F0"/>
        </linearGradient>
    </defs>
</svg>
