<svg width="1489" height="1465" viewBox="0 0 1489 1465" fill="none"
    xmlns="http://www.w3.org/2000/svg">
    <path d="M1116.9 161.944C1119.8 168.932 1122.45 176.022 1125.63 182.819C1134.79 202.433 1143.78 222.186 1153.37 241.621C1159.42 253.753 1164.6 266.244 1170.4 278.478C1177.9 294.284 1186.15 309.782 1193.18 325.855C1203.78 350.013 1216.32 373.588 1220.85 400.048C1223.83 417.515 1221.58 434.612 1215.37 450.89C1200.42 490.078 1181.02 527.121 1160.33 563.472C1145.3 589.931 1129.9 616.332 1119.6 645.105C1111.99 666.385 1106.45 688.112 1109.16 711.052C1111.41 729.908 1119.64 745.916 1132.76 759.537C1148.39 775.738 1167.89 785.189 1188.96 791.81C1227.74 803.915 1266.72 815.283 1306.05 825.416C1323.17 829.837 1340.56 833.347 1357.29 839.091C1380.54 847.127 1401.63 858.672 1419.1 876.502C1448.38 906.393 1456.66 941.881 1447.7 981.913C1442.17 1006.46 1431.25 1028.32 1412.24 1045.34C1369.49 1083.52 1312.4 1091.34 1262.04 1061.28C1243.45 1050.16 1228.41 1034.87 1215.9 1017.3C1196.59 990.303 1177.55 963.118 1158.56 935.846C1141.46 911.409 1125.44 886.237 1108.75 861.559C1097.07 844.227 1084.31 827.63 1071.36 811.258C1057.75 794 1044.76 776.126 1030.31 759.649C1013.93 740.934 995.932 723.756 971.376 715.898C951.075 709.392 930.806 710.12 910.761 717.496C894.043 723.637 879.123 732.366 867.665 746.472C857.357 759.158 851.489 773.989 846.695 789.316C838.693 814.89 833.671 841.185 828.674 867.542C823.517 894.908 819.455 922.471 810.783 949.048C799.916 982.553 781.145 1010.28 751.611 1030.22C736.906 1040.16 721.384 1048.49 705.534 1056.37C680.671 1068.72 654.033 1076.44 628.334 1086.6C610.348 1093.7 591.85 1099.57 573.489 1105.59C556.144 1111.27 538.593 1116.45 521.17 1121.94C514.698 1123.97 508.483 1126.62 502.062 1128.78C490.272 1132.66 478.743 1137.52 466.875 1141.21C442.657 1148.65 418.391 1156.33 393 1158.68C359.007 1161.77 327.657 1154.12 301.414 1131.38C285.29 1117.48 272.298 1100.84 265.183 1080.38C257.617 1058.65 257.513 1036.59 263.236 1014.42C271.631 981.946 290.502 957.08 319.004 939.887C334.635 930.428 352.062 925.298 370.438 923.325C398.579 920.273 424.799 927.078 450.196 938.356C474.517 949.139 497.966 961.66 521.55 973.981C553.091 990.466 585.478 1005.15 619.656 1015.25C643.755 1022.35 668.084 1022.33 692.283 1014.32C718.237 1005.65 737.669 989.467 749.334 964.692C756.805 948.834 758.137 931.972 756.417 914.564C753.543 884.95 738.606 863.096 714.204 847.056C691.894 832.394 667.144 823.022 641.877 815.024C612.644 805.845 583.318 797.14 554.017 788.496C534.945 782.857 515.851 777.515 497.713 769.241C476.726 759.684 457.862 747.217 443.786 728.485C427.825 707.13 417.636 683.451 417.332 656.539C417.104 630.684 425.371 607.319 440.84 586.474C469.995 547.12 523.669 530.716 568.489 542.197C593.036 548.464 615.927 559.115 638.818 569.767C657.645 578.48 676.714 586.731 696.156 593.957C706.27 597.733 716.286 601.622 726.292 605.661C749.102 614.896 772.407 623.055 796.503 628.06C818.382 632.607 840.373 633.411 861.341 624.42C875.934 618.218 888.055 608.331 898.168 595.871C917.304 572.344 922.374 544.942 921.27 515.754C920.119 482.96 915.853 450.517 911.016 418.093C907.732 396.043 904.659 373.977 900.706 352.06C897.556 334.521 893.71 317.052 891.651 299.35C887.456 263.761 879.838 228.649 875.16 193.116C872.333 171.818 870.932 150.291 876.746 129.394C888.828 86.2516 914.53 55.5062 959.766 45.6487C1007.38 35.2391 1046.7 51.1035 1078.24 87.3054C1087.38 97.7946 1093.45 110.349 1099.57 122.816C1105.94 135.54 1110.91 148.916 1116.9 161.944Z" stroke="url(#paint0_linear_671_144)" stroke-width="2" stroke-miterlimit="10"/>
    <defs>
        <linearGradient id="paint0_linear_671_144" x1="1277.29" y1="510.843" x2="211.296" y2="953.244" gradientUnits="userSpaceOnUse">
            <stop offset="0.00126075" stop-color="#F1F1F1"/>
            <stop offset="1" stop-color="#A7B3F0"/>
        </linearGradient>
    </defs>
</svg>
