<svg width="1198" height="1180" viewBox="0 0 1198 1180" fill="none"
    xmlns="http://www.w3.org/2000/svg">
    <path d="M948.526 555.949C929.392 555.949 914.34 556.15 899.354 555.882C876.742 555.414 854.063 555.28 831.517 553.807C811.113 552.535 790.775 553.472 770.438 552.803C741.938 551.865 713.974 548.25 687.549 536.601C668.75 528.299 651.757 517.051 636.905 502.858C618.508 485.317 602.519 465.433 585.526 446.553C563.851 422.451 544.316 396.407 520.7 374.113C499.091 353.693 474.271 337.692 444.902 331.533C414.128 325.039 386.097 332.738 362.147 353.693C338.13 374.782 329.165 402.165 329.366 433.23C329.5 451.507 332.443 469.316 341.408 485.585C353.45 507.41 372.517 520.733 395.463 528.901C415.065 535.864 435.469 539.212 456.075 541.823C481.43 545.036 506.986 546.241 532.341 548.786C568.467 552.401 604.526 556.15 640.719 559.564C656.574 561.037 672.496 561.774 688.418 562.644C725.28 564.72 762.142 566.661 798.603 573.423C818.539 577.105 838.876 578.913 859.147 581.122C899.622 585.541 940.163 588.688 980.437 595.048C1009.54 599.668 1038.37 605.76 1067.27 611.785C1087.61 616.003 1107.48 621.627 1125.88 631.469C1158.26 648.675 1182.21 673.781 1191.84 709.533C1202.61 749.569 1195.45 786.726 1167.69 818.862C1149.23 840.286 1125.81 853.542 1098.72 859.902C1071.76 866.196 1045.46 862.647 1019.84 852.203C989.937 840.018 967.124 819.331 947.054 794.76C934.276 779.161 921.431 763.494 907.65 748.698C893.534 733.568 880.555 717.433 866.908 701.9C843.359 674.986 817.201 651.554 782.279 640.172C771.04 636.49 759.533 633.812 747.826 633.879C733.777 634.013 720.062 637.093 707.217 643.252C675.841 658.182 656.842 683.087 649.884 716.696C643.595 747.158 651.623 774.541 671.894 798.174C686.344 815.046 702.735 829.976 718.791 845.24C743.076 868.405 767.226 891.637 792.381 913.864C809.708 929.196 827.236 944.259 843.091 961.198C860.619 979.877 874.467 1000.7 880.756 1025.94C885.305 1044.28 883.967 1062.29 878.481 1080.3C871.992 1101.79 860.887 1120.27 843.693 1134.73C828.239 1147.72 810.578 1156.69 791.177 1162.11C762.744 1170.08 733.576 1172.22 704.207 1173.09C671.961 1174.03 639.715 1173.5 607.402 1173.96C569.336 1174.5 531.203 1175.84 493.137 1177.25C430.853 1179.59 368.636 1178.32 306.419 1178.79C288.958 1178.92 271.498 1179.12 254.104 1178.38C232.495 1177.51 210.886 1176.84 189.277 1175.17C171.415 1173.76 153.486 1173.56 135.624 1172.69C106.99 1171.29 79.16 1166.33 54.7415 1150.13C24.6365 1130.18 7.10872 1102.13 2.89402 1066.11C-0.919278 1033.77 6.50662 1004.25 25.5062 977.801C38.7524 959.323 55.8788 945.933 76.9523 937.163C98.7617 928.057 121.642 923.237 144.521 917.948C174.024 911.119 203.46 904.089 233.03 897.461C277.184 887.553 320.803 875.368 364.823 864.656C394.527 857.425 424.565 850.931 453.064 839.349C473 831.248 492.803 822.745 509.929 809.355C534.749 789.939 544.249 763.829 542.175 733.032C539.298 690.72 506.919 648.541 461.159 640.775C433.262 636.021 408.174 642.315 385.161 658.182C365.358 671.773 349.57 689.648 333.447 707.122C305.416 737.518 279.793 770.122 250.825 799.714C233.365 817.523 215.435 834.796 195.499 849.86C177.235 863.651 156.496 870.413 133.684 871.083C105.452 871.886 79.2269 864.923 56.0795 848.789C21.2915 824.486 2.69332 790.609 1.08772 748.029C-0.183376 715.692 12.4607 688.376 32.3969 663.806C46.2452 646.733 63.0371 632.808 79.0931 618.012C106.121 593.173 135.289 570.946 163.053 546.978C181.584 531.044 200.985 516.114 217.777 498.238C235.438 479.559 245.407 457.6 244.604 431.623C244.002 411.27 236.308 393.261 224.467 376.925C212.826 360.857 198.108 347.668 183.725 334.278C169.408 320.955 154.489 308.368 139.303 295.982C118.363 278.91 97.1561 262.039 76.484 244.699C56.8823 228.296 37.8827 211.157 23.2985 189.8C-5.20087 148.09 -3.86288 93.7934 26.5097 53.4225C49.055 23.4289 79.4945 7.02617 116.022 2.07187C147.866 -2.27988 176.7 6.82532 202.524 25.6383C221.256 39.363 237.579 55.6988 252.899 73.1058C278.656 102.564 298.793 135.972 320.468 168.309C329.901 182.368 340.204 195.825 351.911 208.211C366.964 224.212 386.03 232.179 406.702 237.468C436.874 245.234 467.849 248.448 498.623 252.733C516.352 255.21 534.281 255.812 552.076 257.687C576.294 260.231 600.579 262.842 624.863 264.851C643.997 266.39 663.13 268.198 682.264 269.671C691.027 270.34 699.791 270.541 708.622 271.01C732.171 272.282 755.72 273.889 779.202 276.299C791.511 277.571 803.888 277.705 816.197 278.776C834.996 280.45 853.795 281.722 872.527 283.931C887.379 285.672 902.298 287.145 917.283 287.681C939.226 288.484 961.17 290.225 983.046 292.032C1003.52 293.706 1023.79 296.384 1044.13 299.129C1061.25 301.472 1078.31 304.15 1094.77 309.372C1144.48 325.173 1185.08 360.254 1192.58 418.702C1196.99 452.913 1187.76 483.71 1164.34 509.62C1144.61 531.512 1119.86 544.166 1091.02 549.321C1068.01 553.405 1044.79 554.342 1021.51 555.213C995.891 556.15 970.134 555.882 948.526 555.949Z" stroke="url(#paint0_linear_520_322)" stroke-width="2" stroke-miterlimit="10"/>
    <defs>
        <linearGradient id="paint0_linear_520_322" x1="0.519877" y1="589.87" x2="1197.36" y2="589.87" gradientUnits="userSpaceOnUse">
            <stop offset="0.00126075" stop-color="#F1F1F1"/>
            <stop offset="1" stop-color="#A7B3F0"/>
        </linearGradient>
    </defs>
</svg>
