<svg width="1512" height="957" viewBox="0 0 1512 957" fill="none" xmlns="http://www.w3.org/2000/svg">
<path d="M2102.51 469.236C2068.48 487.683 2033.81 504.88 1999.78 523.326C1976.64 535.859 1954.05 549.463 1930.33 561.015C1905.63 572.998 1880.89 584.922 1856.19 596.905C1834.73 607.291 1812.15 614.637 1787.71 613.831C1765.9 613.172 1745.32 607.288 1725.19 599.512C1698.68 589.15 1672.96 576.952 1646.74 565.987C1619.02 554.442 1592 541.033 1562.97 532.798C1538.72 525.941 1514.26 521.153 1488.88 524.97C1475.94 526.897 1463.25 530.048 1450.63 533.168C1420.57 540.606 1390.56 548.014 1360.66 555.75C1341.64 560.656 1322.88 566.487 1303.81 571.274C1289.78 574.741 1275.84 578.687 1261.97 582.751C1248.54 586.659 1235.49 591.881 1222.16 596.118C1210.65 599.794 1198.98 602.873 1187.37 606.22C1173.14 610.318 1159.03 614.805 1144.67 618.515C1112.85 626.634 1080.92 629.993 1048.5 621.171C1022.75 614.184 1001.68 600.49 986.171 578.734C978.674 568.137 973.526 556.253 969.54 543.846C965.088 530.097 962.22 516.059 961.772 501.602C961.155 483.165 964.556 465.217 968.888 447.467C973.535 428.575 979.445 410.087 985.746 391.773C996.704 360.138 1008.35 328.823 1019.22 297.158C1028.06 271.358 1038.17 245.811 1041.03 218.347C1042.96 199.879 1041.45 181.901 1033.49 164.842C1020.51 137.186 998.928 118.558 970.794 107.527C944.166 97.077 916.295 90.3549 888.8 82.4603C871.401 77.4952 854.233 71.8086 836.806 66.9337C814.27 60.6247 791.591 54.7666 768.911 48.9086C743.137 42.1606 718.148 33.5763 696.215 17.9176C680.597 6.76221 667.939 -7.12471 659.074 -24.1726C649.658 -42.2917 645.554 -61.7939 646.201 -82.1633C646.938 -104.839 651.729 -126.667 662.046 -147.126C670.99 -164.844 683.48 -179.041 700.354 -189.85C717.793 -201.025 736.55 -207.305 757.007 -209.265C796.007 -212.951 830.518 -201.969 860.94 -177.731C875.244 -166.35 887.478 -152.847 899.357 -139.011C915.337 -120.434 930.723 -101.4 947.118 -83.1879C956.073 -73.2676 964.377 -62.8602 972.77 -52.4239C985.452 -36.591 999.142 -21.579 1012.24 -6.11048C1019.59 2.60194 1026.65 11.6175 1033.92 20.4507C1042.67 31.152 1051.28 42.0049 1060.57 52.2803C1067.31 59.8026 1073.4 67.9617 1079.82 75.8773C1088.78 86.8454 1097.78 97.7233 1107.2 108.387C1117.83 120.532 1128.63 132.435 1140.42 143.459C1155.17 157.17 1171.48 168.347 1191.59 172.44C1203.78 174.894 1215.93 174.505 1228.02 171.211C1250.04 165.13 1269.72 153.927 1289.72 143.47C1318.28 128.594 1347.24 114.492 1375.49 99.0216C1421.29 73.902 1468.26 51.0437 1514.4 26.429C1536.38 14.719 1557.14 1.07772 1574.92 -16.5989C1592.49 -34.0934 1604.03 -54.9567 1609.06 -79.0932C1616.95 -116.68 1624.15 -154.437 1631.8 -192.051C1636.4 -214.685 1642.29 -237.005 1648.19 -259.326C1652.68 -276.329 1658.64 -292.662 1668.01 -307.51C1685.66 -335.516 1709 -356.585 1741.18 -366.924C1768.14 -375.551 1794.88 -375.253 1820.65 -363.984C1851.18 -350.647 1875.63 -330.109 1891.28 -299.76C1904.31 -274.619 1909.43 -248.332 1904.86 -220.518C1901.57 -200.595 1894.17 -181.939 1884.09 -164.387C1871.33 -142.222 1854.01 -124.101 1834.21 -108.166C1816.71 -94.1762 1798.46 -81.2247 1779.75 -68.8664C1767.69 -60.8423 1756.21 -51.8372 1744.49 -43.3082C1732.89 -34.8406 1721.07 -26.6398 1709.68 -17.9053C1692.15 -4.42376 1673.55 7.57379 1655.57 20.3124C1639.21 31.8331 1623.1 43.6802 1606.89 55.3488C1582.47 72.8381 1557.58 89.5846 1533.15 106.924C1526.09 111.922 1518.75 116.684 1511.32 121.267C1497.65 129.82 1484.5 139.235 1471.17 148.293C1453.15 160.523 1435.4 173.139 1417.46 185.398C1399.65 197.596 1381.38 209.2 1363.87 221.843C1340.39 238.841 1316.52 255.665 1297.42 277.79C1279.21 298.855 1267.23 322.808 1265.63 351.124C1265.02 362.51 1266.81 373.567 1269.7 384.58C1273.19 398.072 1279.18 410.424 1287.16 421.524C1296.55 434.613 1309.39 443.887 1324.52 449.718C1354.43 461.266 1384.56 459.366 1414.91 451.625C1432.55 447.125 1449.7 440.925 1466.9 435.143C1482.32 429.981 1497.33 423.598 1512.38 417.423C1529.09 410.539 1545.56 403.179 1562.21 396.176C1576.66 390.159 1591.38 384.976 1605.99 379.555C1616.54 375.622 1626.78 370.944 1637.42 367.04C1646.37 363.785 1655.37 360.799 1664.1 356.979C1673.39 352.941 1683.05 349.768 1692.32 345.671C1707.36 339.047 1722.8 333.496 1738.27 327.855C1745.48 325.191 1752.84 322.525 1759.81 319.235C1776.04 311.698 1792.66 305.085 1809.32 298.531C1822.22 293.461 1835.19 288.659 1848.12 283.649C1862.58 278.08 1876.94 272.483 1891.45 267.033C1903.5 262.483 1915.6 258.051 1927.7 253.62C1952.02 244.696 1976.13 235.205 2000.95 227.383C2017.26 222.21 2033.55 217.128 2050.3 213.687C2086.53 206.233 2121.84 206.635 2153.61 228.819C2174.73 243.62 2191.96 262.001 2201.43 286.498C2209.56 307.537 2212.32 329.392 2208.46 351.717C2205.11 371.371 2196.19 388.699 2184.05 404.449C2171.44 420.745 2156.03 433.811 2139.35 445.575C2127.29 454.048 2115.15 462.044 2102.51 469.236Z" stroke="url(#paint0_linear_1402_1274)" stroke-miterlimit="10"/>
<path d="M-516.468 -440.479C-477.765 -440.897 -439.076 -439.908 -400.372 -440.326C-374.057 -440.599 -347.73 -442.077 -321.359 -441.211C-293.917 -440.268 -266.476 -439.258 -239.035 -438.315C-215.208 -437.475 -191.815 -433.425 -170.577 -421.296C-151.603 -410.528 -136.151 -395.711 -121.985 -379.434C-103.386 -357.89 -86.3395 -335.09 -68.28 -313.15C-49.1614 -289.994 -31.529 -265.514 -9.70922 -244.675C8.52953 -227.286 27.9238 -211.627 52.1433 -203.15C64.4864 -198.809 77.1762 -195.669 89.7991 -192.531C119.854 -185.067 149.841 -177.604 179.899 -170.475C199.003 -165.932 218.316 -162.325 237.418 -157.649C251.443 -154.161 265.608 -151.141 279.773 -148.254C293.47 -145.44 307.449 -143.961 321.216 -141.481C333.113 -139.353 344.869 -136.625 356.696 -134.164C371.194 -131.14 385.764 -128.517 400.192 -125.093C432.119 -117.41 461.928 -105.462 486.472 -82.5204C505.974 -64.3155 518.209 -42.3667 521.761 -15.8847C523.441 -3.01292 522.441 9.89915 520.171 22.7315C517.685 36.9678 513.665 50.72 507.309 63.7126C499.243 80.3035 487.852 94.5849 475.731 108.256C462.798 122.79 448.937 136.377 434.812 149.627C410.347 172.482 385.419 194.73 361.021 217.652C341.15 236.335 320.283 254.204 304.923 277.15C294.592 292.58 287.53 309.181 286.606 327.986C285.164 358.502 295.545 385.052 315.268 407.946C333.933 429.624 355.437 448.586 376.061 468.409C389.126 480.925 401.651 493.972 414.783 506.423C431.763 522.527 449.08 538.3 466.398 554.072C486.036 572.078 504.122 591.34 516.202 615.43C524.801 632.589 529.507 650.78 529.383 669.994C529.246 690.414 523.766 709.575 513.68 727.284C502.436 746.99 488.005 764.053 469.327 777.324C453.143 788.813 435.467 795.533 415.499 797.208C394.86 798.944 375.341 795.736 356.338 787.914C320.131 772.957 294.746 747.128 279.166 711.487C271.834 694.743 267.324 677.089 263.283 659.306C257.83 635.416 253.115 611.4 247.125 587.639C243.84 574.684 241.359 561.603 238.812 548.455C234.994 528.532 229.901 508.864 225.545 489.069C223.112 477.931 221.082 466.662 218.783 455.458C216.04 441.906 213.497 428.289 210.083 414.865C207.636 405.065 206.063 395.006 204.087 385.01C201.279 371.123 198.404 357.302 195.06 343.476C191.334 327.772 187.338 312.199 182.067 296.948C175.427 277.934 166.228 260.435 150.356 247.421C140.726 239.559 129.799 234.227 117.574 231.494C95.2606 226.585 72.6232 227.296 50.0609 227.205C17.8582 227.018 -14.3359 225.961 -46.5453 226.443C-98.777 227.261 -150.983 225.535 -203.276 225.75C-228.184 225.836 -252.913 228.201 -276.888 235.528C-300.595 242.79 -320.544 255.848 -336.266 274.84C-360.798 304.389 -384.799 334.413 -409.131 364.098C-423.771 381.963 -439.407 398.947 -455.043 415.931C-466.955 428.868 -479.86 440.523 -495.078 449.276C-523.765 465.795 -554.239 473.526 -587.523 467.637C-615.393 462.672 -638.901 449.917 -656.424 427.916C-677.187 401.865 -689.212 372.285 -688.871 338.143C-688.656 309.823 -680.901 284.191 -663.872 261.73C-651.66 245.649 -636.399 232.612 -619.285 221.802C-597.657 208.158 -573.876 200.227 -548.921 195.388C-526.919 191.188 -504.728 188.263 -482.411 186.075C-468.001 184.612 -453.647 182.01 -439.298 179.944C-425.084 177.876 -410.805 176.144 -396.654 173.74C-374.857 170.008 -352.81 168.085 -330.955 165.223C-311.111 162.676 -291.331 159.726 -271.552 156.978C-241.784 152.923 -211.958 149.738 -182.259 145.817C-173.678 144.697 -164.966 143.913 -156.256 143.331C-140.176 142.152 -124.152 139.968 -108.133 138.187C-86.4827 135.791 -64.8952 132.927 -43.3116 130.464C-21.862 128 -0.285779 126.273 21.1023 123.273C49.7988 119.207 78.7599 115.479 105.982 104.837C131.927 94.7177 153.708 79.1339 168.346 54.8419C174.201 45.0582 177.789 34.4484 180.376 23.36C183.591 9.80053 184.063 -3.9202 182.19 -17.4635C180.005 -33.4201 172.983 -47.6173 162.325 -59.8422C141.275 -84.0214 113.747 -96.4145 83.2896 -103.748C65.5894 -108.009 47.5372 -110.532 29.6229 -113.456C13.5804 -116.093 -2.67566 -117.461 -18.8627 -119.028C-36.856 -120.748 -54.8547 -121.931 -72.8494 -123.517C-88.4353 -124.944 -103.879 -127.241 -119.325 -129.27C-130.491 -130.72 -141.733 -131.368 -152.966 -132.886C-162.393 -134.185 -171.751 -135.751 -181.252 -136.449C-191.354 -137.219 -201.38 -138.926 -211.483 -139.629C-227.875 -140.797 -244.121 -143.101 -260.436 -145.34C-268.058 -146.353 -275.814 -147.435 -283.51 -147.779C-301.378 -148.694 -319.168 -150.612 -336.958 -152.597C-350.735 -154.141 -364.442 -155.951 -378.219 -157.562C-393.6 -159.389 -408.915 -161.148 -424.294 -163.11C-437.066 -164.71 -449.837 -166.444 -462.608 -168.178C-488.283 -171.648 -514.032 -174.516 -539.628 -179.19C-556.47 -182.237 -573.244 -185.351 -589.667 -190.134C-625.183 -200.464 -656.216 -217.311 -673.949 -251.768C-685.705 -274.717 -692.359 -299.02 -689.287 -325.101C-686.653 -347.504 -678.882 -368.115 -665.044 -386.055C-652.902 -401.869 -636.923 -413.024 -618.83 -421.28C-600.065 -429.797 -580.337 -434.153 -560.092 -436.763C-545.477 -438.626 -531.001 -440.022 -516.468 -440.479Z" stroke="url(#paint1_linear_1402_1274)" stroke-miterlimit="10"/>
<defs>
<linearGradient id="paint0_linear_1402_1274" x1="1145.92" y1="-420.818" x2="1710.88" y2="675.03" gradientUnits="userSpaceOnUse">
<stop offset="0.00126075" stop-color="#F1F1F1"/>
<stop offset="1" stop-color="#A7B3F0"/>
</linearGradient>
<linearGradient id="paint1_linear_1402_1274" x1="-86.3603" y1="793.32" x2="-74.0651" y2="-439.528" gradientUnits="userSpaceOnUse">
<stop offset="0.00126075" stop-color="#F1F1F1"/>
<stop offset="1" stop-color="#A7B3F0"/>
</linearGradient>
</defs>
</svg>
