<svg width="593" height="646" viewBox="0 0 593 646" fill="none" xmlns="http://www.w3.org/2000/svg">
<path d="M-473.579 666C-452.07 666.019 -435.149 665.819 -418.303 666.12C-392.884 666.643 -367.389 666.809 -342.046 668.405C-319.109 669.785 -296.245 668.803 -273.383 669.538C-241.346 670.568 -209.914 674.459 -180.218 686.935C-159.093 695.825 -140.001 707.862 -123.319 723.045C-102.653 741.809 -84.6975 763.075 -65.6128 783.268C-41.2685 809.047 -19.3326 836.899 7.19432 860.747C31.4668 882.591 59.3534 899.716 92.3631 906.327C126.952 913.297 158.471 905.097 185.414 882.726C212.433 860.212 222.536 830.957 222.339 797.758C222.206 778.225 218.914 759.19 208.851 741.795C195.335 718.459 173.913 704.202 148.125 695.45C126.096 687.99 103.161 684.392 80.0003 681.582C51.5002 678.122 22.7725 676.809 -5.72826 674.065C-46.3362 670.166 -86.8689 666.124 -127.552 662.44C-145.375 660.85 -163.273 660.047 -181.171 659.101C-222.608 656.847 -264.045 654.736 -305.026 647.474C-327.434 643.519 -350.295 641.567 -373.08 639.186C-418.576 634.424 -464.148 631.021 -509.416 624.185C-542.127 619.219 -574.535 612.68 -607.018 606.212C-629.877 601.685 -652.208 595.655 -672.88 585.119C-709.264 566.699 -736.165 539.845 -746.961 501.628C-759.032 458.832 -750.95 419.129 -719.709 384.813C-698.932 361.936 -672.598 347.792 -642.133 341.022C-611.819 334.323 -582.266 338.141 -553.472 349.327C-519.866 362.379 -494.241 384.51 -471.702 410.788C-457.352 427.471 -442.927 444.226 -427.448 460.052C-411.594 476.236 -397.019 493.492 -381.691 510.105C-355.244 538.89 -325.86 563.958 -286.613 576.156C-273.982 580.102 -261.049 582.975 -247.888 582.915C-232.094 582.786 -216.674 579.508 -202.229 572.938C-166.943 557.014 -145.561 530.416 -137.709 494.506C-130.611 461.957 -139.61 432.686 -162.375 407.409C-178.604 389.365 -197.016 373.393 -215.051 357.065C-242.329 332.285 -269.457 307.434 -297.713 283.655C-317.178 267.253 -336.867 251.137 -354.676 233.02C-374.362 213.041 -389.91 190.775 -396.956 163.795C-402.053 144.187 -400.532 124.941 -394.348 105.7C-387.033 82.7394 -374.532 63.0029 -355.19 47.5653C-337.805 33.7001 -317.943 24.1299 -296.128 18.3535C-264.158 9.86722 -231.366 7.60633 -198.349 6.70508C-162.099 5.73511 -125.85 6.33918 -89.5251 5.87012C-46.7323 5.33517 -3.86349 3.94177 38.9302 2.47669C108.949 0.0337462 178.89 1.45433 248.832 1.01468C268.461 0.888755 288.09 0.691265 307.643 1.49541C331.934 2.44679 356.225 3.18357 380.515 4.99354C400.594 6.51363 420.749 6.74587 440.828 7.69357C473.015 9.22426 504.296 14.5463 531.731 31.8851C565.555 53.2362 585.233 83.2323 589.937 121.73C594.194 156.291 585.819 187.837 564.435 216.08C549.527 235.814 530.262 250.107 506.564 259.46C482.038 269.169 456.313 274.298 430.587 279.928C397.415 287.196 364.318 294.68 331.07 301.734C281.425 312.28 232.379 325.259 182.883 336.664C149.485 344.362 115.711 351.272 83.6628 363.622C61.2438 372.26 38.9748 381.327 19.7095 395.62C-8.21021 416.345 -18.9139 444.239 -16.6113 477.154C-13.417 522.375 22.9434 567.483 74.3772 575.828C105.734 580.935 133.942 574.234 159.828 557.3C182.101 542.795 199.867 523.707 218.008 505.048C249.548 472.593 278.382 437.774 310.974 406.178C330.62 387.163 350.791 368.721 373.217 352.642C393.761 337.921 417.081 330.715 442.727 330.022C474.465 329.191 503.939 336.658 529.945 353.924C569.03 379.931 589.906 416.153 591.671 461.659C593.069 496.218 578.83 525.398 556.395 551.637C540.812 569.868 521.922 584.733 503.859 600.53C473.452 627.048 440.641 650.773 409.408 676.361C388.561 693.371 366.738 709.307 347.844 728.394C327.972 748.339 316.746 771.797 317.624 799.559C318.282 821.31 326.914 840.564 340.21 858.034C353.281 875.217 369.814 889.326 385.971 903.65C402.052 917.903 418.812 931.368 435.872 944.62C459.396 962.885 483.22 980.936 506.443 999.488C528.463 1017.04 549.805 1035.37 566.18 1058.21C598.179 1102.81 596.624 1160.84 562.443 1203.95C537.07 1235.98 502.836 1253.48 461.769 1258.74C425.967 1263.36 393.561 1253.6 364.549 1233.47C343.504 1218.79 325.169 1201.31 307.963 1182.69C279.037 1151.19 256.431 1115.46 232.094 1080.88C221.503 1065.85 209.934 1051.46 196.784 1038.21C179.878 1021.1 158.452 1012.56 135.218 1006.89C101.307 998.561 66.4897 995.096 31.8989 990.487C11.9715 987.822 -8.18317 987.161 -28.1863 985.14C-55.4086 982.397 -82.706 979.583 -110.004 977.412C-131.512 975.748 -153.019 973.797 -174.526 972.204C-184.378 971.48 -194.23 971.257 -204.156 970.748C-230.628 969.365 -257.099 967.625 -283.494 965.026C-297.331 963.654 -311.244 963.499 -325.081 962.342C-346.212 960.535 -367.344 959.157 -388.4 956.777C-405.094 954.903 -421.863 953.314 -438.709 952.727C-463.376 951.847 -488.042 949.965 -512.633 948.011C-535.644 946.203 -558.429 943.321 -581.289 940.367C-600.54 937.846 -619.715 934.967 -638.211 929.37C-694.074 912.436 -739.692 874.905 -748.06 812.435C-752.992 775.869 -742.584 742.966 -716.238 715.3C-694.032 691.923 -666.194 678.425 -633.775 672.944C-607.9 668.602 -581.803 667.623 -555.63 666.716C-526.825 665.739 -497.871 666.051 -473.579 666Z" stroke="url(#paint0_linear_1206_1874)" stroke-miterlimit="10"/>
<defs>
<linearGradient id="paint0_linear_1206_1874" x1="592.161" y1="630.682" x2="-753.274" y2="629.505" gradientUnits="userSpaceOnUse">
<stop offset="0.00126075" stop-color="#F1F1F1"/>
<stop offset="1" stop-color="#A7B3F0"/>
</linearGradient>
</defs>
</svg>
