<svg width="92" height="87" viewBox="0 0 92 87" fill="none" xmlns="http://www.w3.org/2000/svg">
<g opacity="0.5">
<path d="M46.5963 56.3295C46.315 56.4923 45.9965 56.5906 45.6672 56.6066L35.0537 57.12C32.0414 57.2644 29.4501 56.9699 27.1289 56.2232C22.0501 54.5916 17.7881 51.1913 15.1309 46.6436L6.3796 31.6788C5.36923 29.9519 5.59573 27.7462 6.937 26.189L18.9535 12.28C19.6627 11.4466 20.6552 10.8666 21.7398 10.6476L39.7252 6.96468C41.7369 6.54974 43.7685 7.43435 44.7753 9.16038L53.533 24.1363C56.1886 28.676 57.0664 34.0577 56.007 39.2903C55.5206 41.6907 54.5071 44.0971 52.9117 46.6477L47.2894 55.6534C47.1158 55.9343 46.8764 56.1645 46.5963 56.3295Z" fill="url(#paint0_linear_927_613)"/>
<g filter="url(#filter0_f_927_613)">
<path d="M41.903 47.4136C41.7122 47.524 41.4994 47.5962 41.2826 47.6183L34.2938 48.3295C32.3103 48.5305 30.6196 48.4465 29.123 48.0749C25.8485 47.2632 23.1761 45.3355 21.6003 42.6439L16.4098 33.787C15.8105 32.7649 16.0412 31.4029 16.9799 30.3973L25.388 21.4132C25.8847 20.8753 26.558 20.4823 27.2784 20.3074L39.226 17.3761C40.5625 17.0464 41.8637 17.5135 42.4607 18.5351L47.655 27.3986C49.2301 30.0854 49.6065 33.3552 48.7163 36.6059C48.3077 38.0971 47.5526 39.6117 46.4102 41.2364L42.3833 46.9728C42.2588 47.1517 42.0931 47.3019 41.903 47.4136Z" fill="#0062FF" fill-opacity="0.5"/>
</g>
<g filter="url(#filter1_b_927_613)">
<mask id="path-3-outside-1_927_613" maskUnits="userSpaceOnUse" x="21.619" y="7.73014" width="72.1843" height="80.6234" fill="black">
<rect fill="white" x="21.619" y="7.73014" width="72.1843" height="80.6234"/>
<path d="M52.3915 82.5223C51.9644 82.4564 51.5524 82.2922 51.1976 82.0329L39.764 73.6777C36.5199 71.3049 34.0775 68.8269 32.2912 66.1035C28.3809 60.1469 26.7883 53.0293 27.8141 46.0591L31.1817 23.1166C31.5698 20.4687 33.6387 18.3574 36.3245 17.8565L60.3515 13.4126C61.7799 13.1372 63.2914 13.3635 64.5983 14.0436L86.3124 25.268C88.7436 26.5203 90.1149 29.145 89.7239 31.7891L86.3537 54.7485C85.3329 61.7091 81.7684 68.0587 76.3189 72.63C73.8186 74.7267 70.7665 76.388 66.9913 77.7124L53.6725 82.3975C53.2588 82.5451 52.8191 82.5848 52.3915 82.5223Z"/>
</mask>
<path d="M52.3915 82.5223C51.9644 82.4564 51.5524 82.2922 51.1976 82.0329L39.764 73.6777C36.5199 71.3049 34.0775 68.8269 32.2912 66.1035C28.3809 60.1469 26.7883 53.0293 27.8141 46.0591L31.1817 23.1166C31.5698 20.4687 33.6387 18.3574 36.3245 17.8565L60.3515 13.4126C61.7799 13.1372 63.2914 13.3635 64.5983 14.0436L86.3124 25.268C88.7436 26.5203 90.1149 29.145 89.7239 31.7891L86.3537 54.7485C85.3329 61.7091 81.7684 68.0587 76.3189 72.63C73.8186 74.7267 70.7665 76.388 66.9913 77.7124L53.6725 82.3975C53.2588 82.5451 52.8191 82.5848 52.3915 82.5223Z" fill="#3EA0FE" fill-opacity="0.35"/>
<path d="M52.24 83.5107C52.7858 83.5949 53.2961 83.2207 53.3798 82.6748C53.4635 82.1289 53.0888 81.618 52.543 81.5338L52.24 83.5107ZM51.1976 82.0329L51.7869 81.2256L51.7869 81.2255L51.1976 82.0329ZM39.764 73.6777L39.1743 74.4849L39.1747 74.4851L39.764 73.6777ZM32.2912 66.1035L33.127 65.5554L33.1268 65.5551L32.2912 66.1035ZM27.8141 46.0591L28.8033 46.2057L28.8033 46.2053L27.8141 46.0591ZM31.1817 23.1166L32.1709 23.2628L32.1709 23.2626L31.1817 23.1166ZM36.3245 17.8565L36.1418 16.873L36.1403 16.8733L36.3245 17.8565ZM60.3515 13.4126L60.5341 14.3961L60.5416 14.3947L60.3515 13.4126ZM64.5983 14.0436L64.1375 14.9308L64.1399 14.9321L64.5983 14.0436ZM86.3124 25.268L85.854 26.1564L85.8553 26.1571L86.3124 25.268ZM89.7239 31.7891L88.7348 31.6418L88.7346 31.6429L89.7239 31.7891ZM86.3537 54.7485L85.3644 54.6023L85.3644 54.6024L86.3537 54.7485ZM76.3189 72.63L76.9616 73.3967L76.9618 73.3966L76.3189 72.63ZM66.9913 77.7124L66.6596 76.7686L66.6588 76.7689L66.9913 77.7124ZM53.6725 82.3975L53.34 81.4539L53.3356 81.4555L53.6725 82.3975ZM52.5352 81.5326C51.9887 81.4527 51.4814 81.8311 51.402 82.3776C51.3227 82.9242 51.7013 83.432 52.2478 83.5119L52.5352 81.5326ZM52.543 81.5338C52.2664 81.4911 52.0061 81.3857 51.7869 81.2256L50.6082 82.8403C51.0986 83.1988 51.6624 83.4216 52.24 83.5107L52.543 81.5338ZM51.7869 81.2255L40.3533 72.8703L39.1747 74.4851L50.6082 82.8403L51.7869 81.2255ZM40.3536 72.8706C37.185 70.5529 34.8343 68.1584 33.127 65.5554L31.4554 66.6516C33.3207 69.4955 35.8548 72.0569 39.1743 74.4849L40.3536 72.8706ZM33.1268 65.5551C29.3492 59.8007 27.8137 52.93 28.8033 46.2057L26.8249 45.9126C25.7629 53.1286 27.4125 60.4931 31.4556 66.6519L33.1268 65.5551ZM28.8033 46.2053L32.1709 23.2628L30.1924 22.9704L26.8248 45.9129L28.8033 46.2053ZM32.1709 23.2626C32.4951 21.0511 34.2287 19.265 36.5086 18.8397L36.1403 16.8733C33.0487 17.4499 30.6445 19.8863 30.1924 22.9706L32.1709 23.2626ZM36.5071 18.84L60.5341 14.3961L60.1688 12.4291L36.1418 16.873L36.5071 18.84ZM60.5416 14.3947C61.7445 14.1628 63.027 14.3529 64.1375 14.9308L65.0591 13.1565C63.5559 12.3742 61.8153 12.1117 60.1613 12.4306L60.5416 14.3947ZM64.1399 14.9321L85.854 26.1564L86.7707 24.3796L65.0567 13.1552L64.1399 14.9321ZM85.8553 26.1571C87.9169 27.219 89.0614 29.4336 88.7348 31.6418L90.713 31.9364C91.1685 28.8565 89.5703 25.8216 86.7695 24.3789L85.8553 26.1571ZM88.7346 31.6429L85.3644 54.6023L87.3429 54.8947L90.7131 31.9353L88.7346 31.6429ZM85.3644 54.6024C84.3797 61.3174 80.9404 67.4473 75.676 71.8634L76.9618 73.3966C82.5963 68.67 86.2862 62.1007 87.343 54.8946L85.3644 54.6024ZM75.6761 71.8633C73.2865 73.8672 70.3466 75.4752 66.6596 76.7686L67.3229 78.6563C71.1865 77.3009 74.3507 75.5862 76.9616 73.3967L75.6761 71.8633ZM66.6588 76.7689L53.34 81.4539L54.0049 83.341L67.3237 78.656L66.6588 76.7689ZM53.3356 81.4555C53.0804 81.5466 52.806 81.5722 52.5352 81.5326L52.2478 83.5119C52.8323 83.5973 53.4373 83.5437 54.0093 83.3395L53.3356 81.4555Z" fill="url(#paint1_linear_927_613)" mask="url(#path-3-outside-1_927_613)"/>
</g>
<g filter="url(#filter2_bd_927_613)">
<path d="M53.8111 55.5888C53.1439 55.4894 52.5141 55.1461 52.0761 54.5723L46.4414 47.1854C45.5722 46.039 45.8078 44.4321 46.9708 43.5923C48.1343 42.7492 49.7851 42.9935 50.6583 44.137L54.713 49.4497L68.0847 39.7745C69.2517 38.9319 70.9025 39.1762 71.7722 40.3192C72.6448 41.4661 72.4086 43.0764 71.2462 43.9128L55.7635 55.117C55.1798 55.54 54.4782 55.6883 53.8111 55.5888Z" fill="url(#paint2_linear_927_613)"/>
<path d="M47.0295 43.6733L47.0294 43.6734C45.9123 44.4801 45.6856 46.0229 46.5208 47.1248L47.0295 43.6733ZM47.0295 43.6733C48.1491 42.862 49.7385 43.0972 50.5788 44.1977L54.6336 49.5104L54.6928 49.5879L54.7717 49.5308L68.1433 39.8556L47.0295 43.6733ZM52.1555 54.5117L46.521 47.125L68.1434 39.8555C69.2666 39.0446 70.856 39.2801 71.6926 40.3797C72.5315 41.4822 72.3042 43.0283 71.1877 43.8316L71.1875 43.8317L55.7049 55.036L55.7048 55.036C55.1434 55.4428 54.4684 55.5857 53.8257 55.4899C53.1826 55.394 52.5768 55.0634 52.1555 54.5117Z" stroke="url(#paint3_linear_927_613)" stroke-opacity="0.5" stroke-width="0.2"/>
</g>
</g>
<defs>
<filter id="filter0_f_927_613" x="0.0791016" y="1.27148" width="65.1094" height="63.1641" filterUnits="userSpaceOnUse" color-interpolation-filters="sRGB">
<feFlood flood-opacity="0" result="BackgroundImageFix"/>
<feBlend mode="normal" in="SourceGraphic" in2="BackgroundImageFix" result="shape"/>
<feGaussianBlur stdDeviation="8" result="effect1_foregroundBlur_927_613"/>
</filter>
<filter id="filter1_b_927_613" x="2.51074" y="-11.7021" width="112.279" height="119.253" filterUnits="userSpaceOnUse" color-interpolation-filters="sRGB">
<feFlood flood-opacity="0" result="BackgroundImageFix"/>
<feGaussianBlur in="BackgroundImageFix" stdDeviation="12"/>
<feComposite in2="SourceAlpha" operator="in" result="effect1_backgroundBlur_927_613"/>
<feBlend mode="normal" in="SourceGraphic" in2="effect1_backgroundBlur_927_613" result="shape"/>
</filter>
<filter id="filter2_bd_927_613" x="30.917" y="24.2729" width="56.3818" height="46.3457" filterUnits="userSpaceOnUse" color-interpolation-filters="sRGB">
<feFlood flood-opacity="0" result="BackgroundImageFix"/>
<feGaussianBlur in="BackgroundImageFix" stdDeviation="7.5"/>
<feComposite in2="SourceAlpha" operator="in" result="effect1_backgroundBlur_927_613"/>
<feColorMatrix in="SourceAlpha" type="matrix" values="0 0 0 0 0 0 0 0 0 0 0 0 0 0 0 0 0 0 127 0" result="hardAlpha"/>
<feOffset dx="5" dy="5"/>
<feGaussianBlur stdDeviation="5"/>
<feColorMatrix type="matrix" values="0 0 0 0 0.376471 0 0 0 0 0.603765 0 0 0 0 0.870588 0 0 0 0.5 0"/>
<feBlend mode="normal" in2="effect1_backgroundBlur_927_613" result="effect2_dropShadow_927_613"/>
<feBlend mode="normal" in="SourceGraphic" in2="effect2_dropShadow_927_613" result="shape"/>
</filter>
<linearGradient id="paint0_linear_927_613" x1="39.6252" y1="-0.00018728" x2="25.9411" y2="50.9483" gradientUnits="userSpaceOnUse">
<stop stop-color="#39AFFD"/>
<stop offset="1" stop-color="#477FFF"/>
</linearGradient>
<linearGradient id="paint1_linear_927_613" x1="41.4652" y1="18.3594" x2="79.2218" y2="72.643" gradientUnits="userSpaceOnUse">
<stop stop-color="white" stop-opacity="0.25"/>
<stop offset="1" stop-color="white" stop-opacity="0"/>
</linearGradient>
<linearGradient id="paint2_linear_927_613" x1="70.3602" y1="42.7448" x2="42.0481" y2="39.6964" gradientUnits="userSpaceOnUse">
<stop stop-color="white"/>
<stop offset="1" stop-color="white" stop-opacity="0.2"/>
</linearGradient>
<linearGradient id="paint3_linear_927_613" x1="49.1726" y1="42.3858" x2="70.6036" y2="45.8379" gradientUnits="userSpaceOnUse">
<stop stop-color="white"/>
<stop offset="1" stop-color="white" stop-opacity="0"/>
</linearGradient>
</defs>
</svg>
