<svg width="108" height="91" viewBox="0 0 108 91" fill="none" xmlns="http://www.w3.org/2000/svg">
<path d="M52.4133 55.5025C51.9792 56.3936 52.0137 57.4421 52.5028 58.3051L59.4532 70.1626C60.0414 71.1679 59.9839 72.4222 59.3072 73.3722C58.6571 74.3388 57.5064 74.844 56.351 74.6788L42.6926 72.8839C42.2161 72.8172 41.7315 72.8644 41.2733 73.0161L40.5711 73.2709C40.3407 73.3955 40.1306 73.5594 39.9564 73.757L30.6693 83.911C30.2057 84.4008 29.5999 84.7346 28.9334 84.8625C27.2936 85.1302 25.7374 84.0465 25.4268 82.4202L23.0862 68.8898C22.9001 67.9081 22.247 67.0783 21.335 66.6639L8.67238 61.0296C7.6131 60.5577 6.92545 59.5212 6.90809 58.3672C6.88131 57.2195 7.49456 56.1523 8.50336 55.5962L20.7009 49.0624C21.6435 48.6063 22.2866 47.7007 22.406 46.6637L23.8402 33.0201C23.8805 32.7132 23.9672 32.4129 24.1034 32.1355L24.2705 31.8702C24.3432 31.6919 24.4425 31.5302 24.5649 31.3834L24.8096 31.1777L25.184 30.8373L26.2749 30.4414C27.286 30.1884 28.3562 30.4577 29.1219 31.1618L39.0936 40.6077C39.817 41.3009 40.8373 41.5941 41.8195 41.3984L55.3789 38.585C56.5239 38.3448 57.7074 38.763 58.4453 39.6643C59.1635 40.5757 59.2863 41.8171 58.7611 42.8524L52.4133 55.5025Z" fill="url(#paint0_linear_927_621)"/>
<g opacity="0.5" filter="url(#filter0_f_927_621)">
<path d="M40.4704 48.6411C34.5401 48.6411 29.7271 53.4343 29.7271 59.3378C29.7271 65.2435 34.5401 70.0345 40.4704 70.0345C46.4115 70.0345 51.2138 65.2435 51.2138 59.3378C51.2138 53.4343 46.4115 48.6411 40.4704 48.6411Z" fill="#2238FF"/>
</g>
<g filter="url(#filter1_b_927_621)">
<path d="M84.0378 53.5097C82.9436 54.1385 82.2295 55.2652 82.126 56.5195L80.9463 73.9165C80.8451 75.3907 79.887 76.6685 78.4956 77.187C77.1204 77.7419 75.5491 77.4567 74.4527 76.4632L61.3786 64.8855C60.9254 64.4773 60.3821 64.1831 59.7918 64.0175L58.8712 63.7872C58.5399 63.7546 58.2018 63.7779 57.8771 63.8621L40.8465 67.9475C40.0086 68.1334 39.1328 68.0546 38.3406 67.7161C36.4251 66.8341 35.5647 64.5907 36.4021 62.6607L43.6254 46.7757C44.1323 45.6116 44.0396 44.2758 43.3774 43.1932L34.098 28.2858C33.3222 27.038 33.3411 25.4605 34.1488 24.235C34.9421 23.0095 36.3506 22.3226 37.8091 22.4538L55.3084 24.2392C56.6258 24.4286 57.95 23.9328 58.8177 22.9273L70.0903 9.60162C70.3523 9.30757 70.6584 9.05334 71.0002 8.85836L71.3657 8.69808C71.5697 8.56214 71.7899 8.4626 72.0236 8.39521L72.428 8.35255L73.0653 8.26027L74.4955 8.61809C75.7395 9.06957 76.6719 10.1119 76.9728 11.3955L80.6954 28.4007C80.9598 29.6428 81.8225 30.6749 82.9952 31.1661L99.2635 37.8289C100.639 38.3888 101.584 39.668 101.715 41.1391C101.817 42.6068 101.058 43.999 99.7649 44.7147L84.0378 53.5097Z" fill="#3EA0FE" fill-opacity="0.4"/>
<path d="M81.4454 73.9493L81.4453 73.9497C81.3308 75.6188 80.2473 77.0644 78.6761 77.6528C77.1239 78.2764 75.354 77.9536 74.1186 76.8358C74.1178 76.8351 74.117 76.8343 74.1162 76.8336L61.0464 65.2598L61.0432 65.257C60.6507 64.9034 60.1786 64.6464 59.6623 64.5005L58.7863 64.2813C58.522 64.2592 58.2556 64.28 58.002 64.3458L57.9931 64.3481L57.9931 64.348L40.9625 68.4334L40.9541 68.4354L40.9541 68.4353C40.0148 68.6438 39.0323 68.5555 38.1432 68.1757L38.1305 68.1702L38.1306 68.17C35.9699 67.1752 34.9971 64.6431 35.9432 62.4626L35.9467 62.4546L35.9467 62.4546L43.1683 46.5735C43.608 45.5605 43.5273 44.3987 42.9515 43.4561C42.9512 43.4555 42.9508 43.4549 42.9505 43.4543L33.6731 28.5502L33.673 28.55C32.7952 27.1384 32.8155 25.3516 33.73 23.9625C34.6246 22.5817 36.212 21.8083 37.8548 21.9561L37.8608 21.9566L37.8608 21.9566L55.3601 23.742C55.364 23.7424 55.3679 23.7429 55.3718 23.7434C55.3747 23.7437 55.3776 23.7441 55.3805 23.7445C56.5282 23.9095 57.6815 23.4779 58.4375 22.6032C58.438 22.6026 58.4386 22.602 58.4391 22.6013L69.7084 9.27944L69.7168 9.26959L69.7169 9.2697C70.0122 8.93832 70.3601 8.64848 70.7527 8.42449C70.768 8.41578 70.7837 8.40787 70.7998 8.4008L71.1272 8.25726C71.3655 8.1041 71.6199 7.99171 71.8857 7.91507C71.9139 7.90693 71.9428 7.90129 71.972 7.89821L72.3668 7.85658L72.9944 7.76569C73.0589 7.75635 73.1245 7.75968 73.1877 7.77547L74.6179 8.13329C74.6345 8.13745 74.6509 8.14247 74.6671 8.14833C76.068 8.65677 77.1202 9.83158 77.4599 11.2807L77.4616 11.2878L77.4615 11.2878L81.1841 28.2931L81.1847 28.2959C81.4145 29.3757 82.165 30.2754 83.1874 30.7043C83.188 30.7046 83.1887 30.7048 83.1893 30.7051L99.453 37.366L81.4454 73.9493ZM81.4454 73.9493L82.6246 56.5596C82.6247 56.5585 82.6248 56.5573 82.6249 56.5561C82.7158 55.4678 83.3355 54.4905 84.2841 53.9442C84.2849 53.9437 84.2858 53.9432 84.2866 53.9428L100.007 45.1518C100.007 45.1515 100.008 45.1513 100.008 45.151C101.47 44.3411 102.33 42.7654 102.214 41.1033L102.214 41.1033M81.4454 73.9493L102.214 41.1033M102.214 41.1033L102.213 41.094M102.214 41.1033L102.213 41.094M102.213 41.094C102.066 39.4367 101.002 37.9969 99.454 37.3664L102.213 41.094Z" stroke="url(#paint1_linear_927_621)" stroke-linecap="round" stroke-linejoin="round"/>
</g>
<defs>
<filter id="filter0_f_927_621" x="9.72705" y="28.6411" width="61.4868" height="61.3936" filterUnits="userSpaceOnUse" color-interpolation-filters="sRGB">
<feFlood flood-opacity="0" result="BackgroundImageFix"/>
<feBlend mode="normal" in="SourceGraphic" in2="BackgroundImageFix" result="shape"/>
<feGaussianBlur stdDeviation="10" result="effect1_foregroundBlur_927_621"/>
</filter>
<filter id="filter1_b_927_621" x="8.52881" y="-16.7393" width="118.196" height="119.206" filterUnits="userSpaceOnUse" color-interpolation-filters="sRGB">
<feFlood flood-opacity="0" result="BackgroundImageFix"/>
<feGaussianBlur in="BackgroundImageFix" stdDeviation="12"/>
<feComposite in2="SourceAlpha" operator="in" result="effect1_backgroundBlur_927_621"/>
<feBlend mode="normal" in="SourceGraphic" in2="effect1_backgroundBlur_927_621" result="shape"/>
</filter>
<linearGradient id="paint0_linear_927_621" x1="10.4763" y1="51.349" x2="67.1557" y2="104.686" gradientUnits="userSpaceOnUse">
<stop stop-color="#39AFFD"/>
<stop offset="1" stop-color="#477FFF"/>
</linearGradient>
<linearGradient id="paint1_linear_927_621" x1="48.976" y1="10.1937" x2="76.13" y2="73.2685" gradientUnits="userSpaceOnUse">
<stop stop-color="white" stop-opacity="0.25"/>
<stop offset="1" stop-color="white" stop-opacity="0"/>
</linearGradient>
</defs>
</svg>
